<?xml version="1.0" encoding="UTF-8"?>
<svg version="1.1" xmlns="http://www.w3.org/2000/svg" width="3333" height="3333">
<path d="M0 0 C1.29855927 0.24076263 1.29855927 0.24076263 2.62335205 0.48638916 C77.61420872 14.46479984 150.61215252 36.68940656 221 66 C222.05253967 66.43795898 222.05253967 66.43795898 223.12634277 66.88476562 C242.40914732 74.9252773 261.27641779 83.74221205 280 93 C281.23242432 93.60884033 281.23242432 93.60884033 282.48974609 94.22998047 C285.73958129 95.83923533 288.9829179 97.4604354 292.21875 99.09765625 C294.99945376 100.50357177 297.79331919 101.87990335 300.59375 103.24609375 C312.71671988 109.18569735 324.47365797 115.65527604 336.17578125 122.3828125 C338.86994762 123.92553017 341.57331551 125.45035795 344.28125 126.96875 C356.76454038 133.98883166 368.93359227 141.45221309 381.02880859 149.11962891 C383.91599616 150.94683668 386.81052115 152.76183529 389.70703125 154.57421875 C401.27155557 161.83571135 412.54681054 169.42481829 423.66992188 177.34472656 C425.89326741 178.92417781 428.12436123 180.49180481 430.359375 182.0546875 C450.92883577 196.45236017 470.75701111 211.64736242 490.19580078 227.52783203 C491.78273046 228.82271511 493.37348737 230.11290478 494.96484375 231.40234375 C501.20018523 236.46569741 507.31522114 241.65830564 513.3984375 246.90234375 C515.74782976 248.92744119 518.1067514 250.9402473 520.4765625 252.94140625 C527.86015759 259.19010578 535.0065027 265.64401722 542.0390625 272.28515625 C545.17743189 275.24800372 548.36610279 278.15175883 551.56079102 281.05371094 C557.52462966 286.50190357 563.28254834 292.13721308 568.98828125 297.85546875 C569.98554767 298.85205825 570.98296219 299.84849955 571.98051453 300.84480286 C574.04665597 302.90948828 576.11102507 304.9759241 578.17407227 307.04370117 C580.79721862 309.6725738 583.42487254 312.29688806 586.05386066 314.91991711 C588.10533199 316.96775124 590.15438678 319.01799012 592.20274925 321.06893349 C593.63425605 322.50141527 595.06774739 323.93191301 596.501297 325.36235046 C600.99944305 329.87657793 605.37876274 334.43311139 609.5181427 339.2800293 C612.04326954 342.21090813 614.72078351 344.9990224 617.375 347.8125 C622.07829762 352.8334334 626.5218434 357.98339862 630.82421875 363.35546875 C633.130317 366.15839248 635.54151531 368.83003275 638 371.5 C642.89374231 376.82974393 647.46107316 382.36770251 652 388 C652.99768805 389.21827563 653.99644911 390.43567307 654.99609375 391.65234375 C662.88527898 401.27133968 670.5038939 411.07247354 678 421 C678.5038623 421.66499512 679.00772461 422.32999023 679.52685547 423.01513672 C683.0435422 427.65789561 686.52882573 432.32314536 690 437 C690.47276367 437.63292969 690.94552734 438.26585937 691.43261719 438.91796875 C702.84464573 454.23758773 713.27785624 470.23802245 723.79571533 486.17663574 C724.86816358 487.80039121 725.94340814 489.422299 727.01904297 491.04394531 C736.12015768 504.76764786 744.64653377 518.81022825 753 533 C753.62165039 534.05493652 754.24330078 535.10987305 754.88378906 536.19677734 C777.59176929 574.85004332 798.21719148 614.83732337 816 656 C816.29565857 656.68370667 816.59131714 657.36741333 816.89593506 658.07183838 C840.01356745 711.63738534 858.93235644 766.64484812 874 823 C874.32550842 824.21629089 874.32550842 824.21629089 874.65759277 825.45715332 C895.13525805 902.24145988 907.11196754 981.64250011 911 1061 C911.04236786 1061.83319763 911.08473572 1062.66639526 911.12838745 1063.52484131 C912.05514657 1082.18182992 912.20232623 1100.82518859 912.1875 1119.5 C912.18723312 1120.25616985 912.18696625 1121.01233971 912.18669128 1121.7914238 C912.17574262 1146.57319009 911.86610472 1171.27783473 910 1196 C909.93683594 1196.84776001 909.87367188 1197.69552002 909.80859375 1198.56896973 C902.84464694 1291.09302534 884.69749299 1382.1630679 847 1497 C846.76945923 1497.67228638 846.53891846 1498.34457275 846.3013916 1499.03723145 C828.7388802 1550.22716298 807.3490135 1600.0091858 783.6328125 1648.6328125 C781.63461257 1652.75350232 779.67614768 1656.89220477 777.7199707 1661.03295898 C771.80539984 1673.53096578 765.49784615 1685.79629441 759 1698 C758.4440918 1699.04591309 757.88818359 1700.09182617 757.31542969 1701.16943359 C749.11027799 1716.58131227 740.67073499 1731.84567458 732 1747 C731.1325415 1748.52246338 731.1325415 1748.52246338 730.24755859 1750.07568359 C717.19977197 1772.96510781 703.62324958 1795.52208464 689.44384766 1817.72900391 C687.99736156 1820.00414994 686.56556864 1822.28796247 685.13671875 1824.57421875 C676.9259568 1837.6611037 668.38188399 1850.52134369 659.8125 1863.375 C659.21348877 1864.27397003 658.61447754 1865.17294006 657.99731445 1866.09915161 C650.42152451 1877.46218871 642.77953116 1888.77538635 635 1900 C634.35426025 1900.93215332 633.70852051 1901.86430664 633.04321289 1902.82470703 C631.40832286 1905.17800347 629.7685719 1907.52776048 628.125 1909.875 C627.54113525 1910.7088623 626.95727051 1911.54272461 626.35571289 1912.40185547 C620.84386423 1920.25429118 615.23310406 1928.03285291 609.59570312 1935.79541016 C608.00930343 1937.98714657 606.43286229 1940.18569808 604.859375 1942.38671875 C598.39686271 1951.41326026 591.77101443 1960.2954708 585.0168457 1969.10595703 C580.56716881 1974.91758395 576.19552553 1980.7793702 571.875 1986.6875 C565.10047079 1995.93755991 558.08569476 2004.98708163 551 2014 C550.02070687 2015.24859874 549.04153403 2016.49729183 548.0625 2017.74609375 C546.25622382 2020.04870763 544.44748457 2022.34935289 542.63671875 2024.6484375 C540.86372825 2026.8999582 539.09587245 2029.15536764 537.33203125 2031.4140625 C531.91041262 2038.34980919 526.40869663 2045.21305443 520.84082031 2052.03198242 C517.29910862 2056.3771477 513.81860914 2060.76433412 510.375 2065.1875 C506.34202959 2070.36176662 502.17463754 2075.39985053 497.91357422 2080.38745117 C495.21660482 2083.5477659 492.57928852 2086.74305727 490 2090 C486.47052982 2094.45333968 482.81666836 2098.78868839 479.13452148 2103.11547852 C476.23696577 2106.5246909 473.38255209 2109.96352278 470.5625 2113.4375 C466.60723975 2118.29843701 462.54026529 2123.0540756 458.44824219 2127.79956055 C455.34573369 2131.40545946 452.30541477 2135.05194825 449.3125 2138.75 C445.76137934 2143.12651627 442.04202602 2147.3083146 438.24609375 2151.47265625 C435.93812402 2154.06962393 433.74444137 2156.73404013 431.5625 2159.4375 C427.69825236 2164.21572621 423.6185129 2168.74226018 419.45703125 2173.26171875 C417.10623867 2175.88160046 414.88749541 2178.56552219 412.6875 2181.3125 C408.61616263 2186.3638407 404.25672588 2191.07473892 399.81079102 2195.79248047 C395.64284166 2200.2401703 391.79606822 2204.85171412 387.984375 2209.609375 C385.69744901 2212.36449056 383.24200143 2214.84833807 380.671875 2217.3359375 C378.27251672 2219.72408382 376.08612601 2222.27829375 373.875 2224.83984375 C370.31025636 2228.94672549 366.64392852 2232.96345965 363 2237 C361.49971321 2238.66640851 359.99971128 2240.33307353 358.5 2242 C357.38238281 2243.24136719 357.38238281 2243.24136719 356.2421875 2244.5078125 C354.76707382 2246.14739879 353.29308348 2247.78799655 351.8203125 2249.4296875 C347.2725104 2254.49538877 342.69027032 2259.52805726 338.08422852 2264.54077148 C335.22426613 2267.65597193 332.38499999 2270.7883454 329.5625 2273.9375 C324.60963877 2279.45438814 319.5759624 2284.89498828 314.53955078 2290.33544922 C313.04403265 2291.95239223 311.55083741 2293.57144131 310.05859375 2295.19140625 C304.13266975 2301.62343084 298.17948983 2308.02912962 292.20703125 2314.41796875 C288.49691747 2318.3890136 284.80458263 2322.37567088 281.125 2326.375 C274.50756052 2333.56129928 267.80293125 2340.66490629 261.09960938 2347.77099609 C258.96404542 2350.03817038 256.83298753 2352.30950081 254.703125 2354.58203125 C253.99897461 2355.33258789 253.29482422 2356.08314453 252.56933594 2356.85644531 C251.23827603 2358.27544689 249.90812295 2359.69529992 248.57910156 2361.11621094 C244.72780147 2365.21819933 240.80071573 2369.22704248 236.79150391 2373.17504883 C235.06726701 2374.93147712 233.4609498 2376.74370751 231.875 2378.625 C227.91502775 2383.24192617 223.58138227 2387.47297768 219.23779297 2391.72509766 C216.21848345 2394.70029251 213.32949847 2397.72502106 210.5625 2400.9375 C206.28755992 2405.88994174 201.62857657 2410.42177931 196.9609375 2415 C193.72440659 2418.19904214 190.58786975 2421.4194751 187.625 2424.875 C182.54865146 2430.76862914 176.9203192 2436.12326765 171.3828125 2441.578125 C167.68669782 2445.24053651 164.03255026 2448.88205946 160.65625 2452.84375 C155.11035269 2459.31179886 148.88236291 2465.17128304 142.82470703 2471.15478516 C141.1830727 2472.77812025 139.54461981 2474.4046212 137.90625 2476.03125 C137.4174939 2476.51170776 136.92873779 2476.99216553 136.4251709 2477.48718262 C133.69868346 2480.19480482 131.12041937 2482.98130507 128.609375 2485.890625 C125.0304255 2490.02138736 121.23128046 2493.87982252 117.34375 2497.71875 C116.63778687 2498.42092651 115.93182373 2499.12310303 115.20446777 2499.84655762 C112.22102625 2502.81383766 109.2315929 2505.77505363 106.24267578 2508.73681641 C104.04509421 2510.91618465 101.85062062 2513.09864947 99.65625 2515.28125 C98.66063049 2516.264422 98.66063049 2516.264422 97.64489746 2517.26745605 C94.50320626 2520.39287009 91.47349798 2523.55873729 88.58203125 2526.91796875 C84.61594216 2531.51188035 80.34337696 2535.76413435 76.03125 2540.03125 C75.1921106 2540.86660278 74.35297119 2541.70195557 73.48840332 2542.56262207 C69.9314548 2546.10336129 66.3685388 2549.63807324 62.80615234 2553.17333984 C60.19159836 2555.7697206 57.58011816 2558.36916566 54.96875 2560.96875 C54.17376099 2561.75544067 53.37877197 2562.54213135 52.55969238 2563.35266113 C49.10961586 2566.78769665 45.74077675 2570.23727955 42.56835938 2573.93164062 C38.27808859 2578.91487238 33.60623132 2583.49910871 28.9375 2588.125 C27.97748625 2589.0805937 27.01777547 2590.03649184 26.05834961 2590.99267578 C22.53229527 2594.50550592 19.0007571 2598.01280573 15.46936035 2601.52026367 C12.47308792 2604.49665517 9.47897769 2607.47519157 6.48757935 2610.45648193 C5.1011466 2611.83653133 3.71162702 2613.21347744 2.32202148 2614.59033203 C-2.04123079 2618.93678208 -6.22925512 2623.34441271 -10.24072266 2628.01586914 C-13.64428938 2631.85444627 -17.32355789 2635.42410753 -20.96875 2639.03125 C-21.8078894 2639.86660278 -22.64702881 2640.70195557 -23.51159668 2641.56262207 C-27.0685452 2645.10336129 -30.6314612 2648.63807324 -34.19384766 2652.17333984 C-36.80840164 2654.7697206 -39.41988184 2657.36916566 -42.03125 2659.96875 C-42.82623901 2660.75544067 -43.62122803 2661.54213135 -44.44030762 2662.35266113 C-48.56732911 2666.4616904 -52.49768912 2670.65823584 -56.29626465 2675.07141113 C-59.19942794 2678.35772459 -62.31791397 2681.420745 -65.4375 2684.5 C-66.12126709 2685.17998047 -66.80503418 2685.85996094 -67.50952148 2686.56054688 C-70.39737773 2689.43225143 -73.29123075 2692.29788438 -76.18457031 2695.1640625 C-78.31265725 2697.27392787 -80.43762917 2699.38689645 -82.5625 2701.5 C-83.20437256 2702.13357422 -83.84624512 2702.76714844 -84.50756836 2703.41992188 C-88.30121095 2707.19327232 -91.89718082 2711.08089041 -95.38232422 2715.14135742 C-116.42483192 2739.31832862 -148.19484263 2756.03079884 -180 2760 C-180.82628906 2760.10957031 -181.65257812 2760.21914062 -182.50390625 2760.33203125 C-219.31194736 2764.44619382 -256.96485525 2754.29779955 -286.22753906 2731.44091797 C-295.55833415 2723.85546995 -303.86698487 2715.20886477 -312.01489258 2706.39257812 C-320.38392526 2697.39708804 -329.1555975 2688.7952165 -337.88525391 2680.15209961 C-338.49905411 2679.5424939 -339.11285431 2678.93288818 -339.74525452 2678.30480957 C-340.89257632 2677.16545915 -342.04199822 2676.0282173 -343.19407654 2674.89367676 C-346.02745649 2672.07780029 -348.7242971 2669.19887442 -351.32983398 2666.17016602 C-355.39600838 2661.47225491 -359.77356744 2657.11909233 -364.1875 2652.75 C-365.47950317 2651.46367676 -365.47950317 2651.46367676 -366.79760742 2650.15136719 C-369.5293112 2647.43179111 -372.26423275 2644.715488 -375 2642 C-378.60711851 2638.41961974 -382.21081802 2634.83584819 -385.8125 2631.25 C-386.62936279 2630.44143555 -387.44622559 2629.63287109 -388.2878418 2628.79980469 C-391.79755859 2625.30499501 -395.23053846 2621.79865339 -398.45898438 2618.04101562 C-402.67268701 2613.14422282 -407.25643658 2608.63792713 -411.84375 2604.09375 C-413.2619165 2602.68137068 -414.68008007 2601.26898839 -416.09807587 2599.85643768 C-418.56323132 2597.40212499 -421.03170509 2594.95115467 -423.5 2592.5 C-426.44985631 2589.57062797 -429.39907839 2586.64063715 -432.34436035 2583.70666504 C-434.17068429 2581.88779387 -435.99925361 2580.07117348 -437.83044434 2578.25720215 C-442.14039597 2573.96424412 -446.26964391 2569.6049643 -450.23303223 2564.99182129 C-453.63998457 2561.15132102 -457.32092512 2557.57849776 -460.96875 2553.96875 C-462.22745911 2552.71572083 -462.22745911 2552.71572083 -463.51159668 2551.43737793 C-466.171969 2548.78912914 -468.83556013 2546.14415594 -471.5 2543.5 C-475.01337273 2540.01337399 -478.52331971 2536.52335074 -482.03125 2533.03125 C-483.22373352 2531.85121399 -483.22373352 2531.85121399 -484.44030762 2530.64733887 C-488.56732911 2526.5383096 -492.49768912 2522.34176416 -496.29626465 2517.92858887 C-499.19942794 2514.64227541 -502.31791397 2511.579255 -505.4375 2508.5 C-506.12126709 2507.82001953 -506.80503418 2507.14003906 -507.50952148 2506.43945312 C-509.67057055 2504.29049074 -511.83484726 2502.14482721 -514 2500 C-516.85716017 2497.16966163 -519.71083454 2494.33587327 -522.5625 2491.5 C-523.20437256 2490.86642578 -523.84624512 2490.23285156 -524.50756836 2489.58007812 C-528.29083623 2485.81704691 -531.84942247 2481.92660254 -535.33642578 2477.88842773 C-537.74726653 2475.15173076 -540.30636174 2472.58699608 -542.90625 2470.03125 C-543.43464478 2469.50664185 -543.96303955 2468.98203369 -544.50744629 2468.44152832 C-546.16916351 2466.79183919 -547.83412137 2465.14548606 -549.5 2463.5 C-561.89716797 2451.25458984 -561.89716797 2451.25458984 -567.25585938 2444.96679688 C-570.96526656 2440.78384835 -575.01880351 2436.92177565 -579 2433 C-584.29101495 2427.78795543 -589.45788474 2422.56873161 -594.29296875 2416.9296875 C-597.36395587 2413.45813684 -600.69246261 2410.24417461 -604 2407 C-608.63872393 2402.45014051 -613.07556494 2397.82985715 -617.31640625 2392.90625 C-619.91174134 2389.96768034 -622.69704956 2387.23868974 -625.5 2384.5 C-629.5787296 2380.47209569 -633.48574746 2376.39740225 -637.1953125 2372.0234375 C-639.97716502 2368.90439073 -642.97534855 2366.00410359 -645.94921875 2363.0703125 C-649.22053502 2359.8260319 -652.26978569 2356.46364835 -655.2578125 2352.9609375 C-657.96922364 2349.90908012 -660.90337147 2347.08855234 -663.80859375 2344.22265625 C-666.42101068 2341.5729856 -668.83302621 2338.78827197 -671.25390625 2335.96484375 C-673.7235936 2333.18575486 -676.37903322 2330.61139504 -679.02734375 2328.00390625 C-681.57337829 2325.41753849 -683.92021557 2322.6846472 -686.28515625 2319.93359375 C-688.47095804 2317.4689653 -690.80504615 2315.18183571 -693.15551758 2312.87573242 C-694.93900332 2311.06203011 -696.60705022 2309.193583 -698.265625 2307.265625 C-701.83051165 2303.16562852 -705.51793523 2299.19756457 -709.25 2295.25 C-715.55708879 2288.55047013 -721.79767568 2281.79655898 -728 2275 C-729.83225928 2272.99901468 -731.66616785 2270.99954377 -733.5 2269 C-734.41407728 2268.00261771 -735.32813979 2267.00522189 -736.2421875 2266.0078125 C-738.10032595 2263.98063231 -739.95984479 2261.9547301 -741.8203125 2259.9296875 C-747.58451305 2253.65329142 -753.30940476 2247.34328 -759 2241 C-760.49971128 2239.33307353 -761.99971321 2237.66640851 -763.5 2236 C-764.23992188 2235.17757812 -764.97984375 2234.35515625 -765.7421875 2233.5078125 C-767.26708244 2231.81407106 -768.79315402 2230.12138831 -770.3203125 2228.4296875 C-774.31243726 2224.0045187 -778.27325892 2219.55662865 -782.1875 2215.0625 C-784.27211164 2212.69035571 -786.38428644 2210.34443935 -788.5 2208 C-793.32121275 2202.65210014 -798.07894027 2197.25697785 -802.75 2191.77734375 C-807.49079323 2186.21877521 -812.24086217 2180.69062026 -817.1875 2175.3125 C-821.23420969 2170.90378433 -825.02753715 2166.33934325 -828.78515625 2161.68359375 C-830.95632827 2159.05291443 -833.20241357 2156.52057576 -835.5 2154 C-838.52282421 2150.68010514 -841.42512161 2147.30235888 -844.25 2143.8125 C-847.87263314 2139.33785384 -851.59482326 2134.96612402 -855.375 2130.625 C-863.55600241 2121.226133 -871.61952897 2111.74100931 -879.48828125 2102.078125 C-882.6461018 2098.20819872 -885.82296555 2094.35415572 -889 2090.5 C-894.3465273 2084.01071971 -899.68584852 2077.51584403 -905 2071 C-905.48291504 2070.40896484 -905.96583008 2069.81792969 -906.46337891 2069.20898438 C-913.61929006 2060.44844104 -920.69495162 2051.63294362 -927.65722656 2042.71777344 C-929.93233948 2039.80728353 -932.21673698 2036.90409715 -934.5 2034 C-935.41538617 2032.83465238 -936.33075076 2031.6692878 -937.24609375 2030.50390625 C-939.09063996 2028.15612327 -940.93718056 2025.80992813 -942.78515625 2023.46484375 C-948.403135 2016.33254776 -953.98340756 2009.17294723 -959.49951172 2001.96142578 C-960.58892948 2000.53734796 -961.67921261 1999.11393201 -962.77001953 1997.69091797 C-971.72987588 1985.9987039 -980.57327684 1974.23056214 -989.27783203 1962.34716797 C-991.02290613 1959.96878089 -992.77407617 1957.59500866 -994.52734375 1955.22265625 C-1007.98229358 1937.01649691 -1021.13797449 1918.63063518 -1034 1900 C-1034.39844116 1899.42422211 -1034.79688232 1898.84844421 -1035.20739746 1898.25521851 C-1042.35316337 1887.92673953 -1049.37344269 1877.51831279 -1056.33398438 1867.06420898 C-1057.9969746 1864.56704298 -1059.66242973 1862.0715341 -1061.328125 1859.57617188 C-1068.3084761 1849.10796261 -1075.20032687 1838.58644187 -1082 1828 C-1082.56364258 1827.12335693 -1083.12728516 1826.24671387 -1083.70800781 1825.34350586 C-1113.25788258 1779.21194768 -1140.30522219 1731.48447986 -1165.51171875 1682.85888672 C-1167.00782696 1679.98496494 -1168.51745206 1677.11854509 -1170.03125 1674.25390625 C-1177.03044241 1660.98913506 -1183.66181732 1647.59258576 -1190 1634 C-1190.57738876 1632.7672127 -1191.15486613 1631.53446689 -1191.73242188 1630.30175781 C-1227.91593444 1552.94848144 -1257.20348965 1472.84124003 -1278 1390 C-1278.1918689 1389.23959412 -1278.38373779 1388.47918823 -1278.5814209 1387.69573975 C-1294.15374211 1325.92136473 -1304.10181172 1262.78286142 -1308.6875 1199.25 C-1308.77904358 1197.98606415 -1308.77904358 1197.98606415 -1308.87243652 1196.69659424 C-1310.6567133 1171.67680959 -1311.20737074 1146.70025827 -1311.1875 1121.625 C-1311.18723312 1120.86785454 -1311.18696625 1120.11070908 -1311.18669128 1119.33061981 C-1311.17558972 1094.17290481 -1310.80083188 1069.10208776 -1309 1044 C-1308.90525391 1042.65201324 -1308.90525391 1042.65201324 -1308.80859375 1041.27679443 C-1303.84117106 971.00389538 -1293.03629707 901.31349898 -1275.52740479 833.05822754 C-1275.01706218 831.06658613 -1274.51073366 829.07396477 -1274.00537109 827.08105469 C-1258.10826888 764.70247095 -1236.54957511 703.62669764 -1210 645 C-1209.23453857 643.2977124 -1209.23453857 643.2977124 -1208.45361328 641.56103516 C-1195.38861193 612.58347807 -1181.41452741 583.83170047 -1165.37451172 556.37744141 C-1163.59107332 553.29269485 -1161.87540779 550.17320262 -1160.16308594 547.04858398 C-1154.39530244 536.5252515 -1148.26917626 526.23137842 -1142 516 C-1141.5659082 515.28956543 -1141.13181641 514.57913086 -1140.68457031 513.84716797 C-1133.41371308 502.00198587 -1125.69794636 490.44475067 -1118 478.875 C-1117.49738647 478.11840088 -1116.99477295 477.36180176 -1116.47692871 476.58227539 C-1106.95617798 462.262731 -1097.16189251 448.1403272 -1086.9375 434.3125 C-1086.35444092 433.52270752 -1085.77138184 432.73291504 -1085.1706543 431.91918945 C-1080.33807159 425.40117506 -1075.3686942 419.00240034 -1070.31347656 412.65625 C-1068.98896087 410.98608003 -1067.67634284 409.3072307 -1066.3671875 407.625 C-1055.76317609 394.00875019 -1044.73630356 380.7513512 -1033.45458984 367.69287109 C-1031.99769473 365.9973171 -1030.55382521 364.29148974 -1029.11328125 362.58203125 C-1023.11153331 355.47827029 -1016.91775531 348.60099399 -1010.5144043 341.85595703 C-1007.26569342 338.4326419 -1004.07730473 334.97079377 -1000.94628906 331.43920898 C-995.85205332 325.77195387 -990.51452642 320.36891499 -985.12109375 314.98828125 C-984.09922519 313.96573645 -983.07750488 312.94304347 -982.05592346 311.92021179 C-979.93220929 309.79503702 -977.80673261 307.67164602 -975.67993164 305.54956055 C-972.97478121 302.85012106 -970.27416693 300.14619497 -967.57485867 297.44091511 C-965.47211928 295.33453798 -963.3669742 293.23057804 -961.26112556 291.1273098 C-960.26499442 290.1318383 -959.2695848 289.13564419 -958.27496147 288.13866615 C-953.22456845 283.07893288 -948.14941394 278.11382288 -942.70980835 273.47169495 C-939.78137919 270.95108824 -936.99747243 268.27590973 -934.1875 265.625 C-929.1665666 260.92170238 -924.01660138 256.4781566 -918.64453125 252.17578125 C-915.84160752 249.869683 -913.16996725 247.45848469 -910.5 245 C-905.17025607 240.10625769 -899.63229749 235.53892684 -894 231 C-892.78172437 230.00231195 -891.56432693 229.00355089 -890.34765625 228.00390625 C-875.38840257 215.7339566 -859.95794611 204.12265837 -844.33789062 192.70996094 C-842.10186397 191.07450452 -839.87109336 189.43208657 -837.640625 187.7890625 C-825.36283203 178.78830995 -812.7228535 170.35594087 -800 162 C-799.21206055 161.48163574 -798.42412109 160.96327148 -797.61230469 160.42919922 C-752.98189582 131.12489273 -706.14473763 104.65455033 -657.51074219 82.59570312 C-654.06608293 81.03003603 -650.63036046 79.44599767 -647.1953125 77.859375 C-586.71207278 50.11197569 -523.52221916 29.05255863 -459 13 C-458.30662537 12.82660095 -457.61325073 12.6532019 -456.89886475 12.47454834 C-390.12350719 -4.20954926 -321.66265198 -13.24388532 -253 -17 C-251.04827881 -17.10803955 -251.04827881 -17.10803955 -249.05712891 -17.21826172 C-166.00494901 -21.53995555 -81.70884193 -15.18605308 0 0 Z M-263 263 C-264.1210614 263.09474609 -264.1210614 263.09474609 -265.26477051 263.19140625 C-329.20649297 268.6312692 -392.06824498 281.19209162 -453.00311279 301.3404541 C-454.93990825 301.98015248 -456.8782 302.61510727 -458.81689453 303.24902344 C-510.51415167 320.24181806 -561.21092334 343.2049535 -608 371 C-609.28245605 371.74999268 -609.28245605 371.74999268 -610.59082031 372.51513672 C-636.20424224 387.51403014 -661.31073646 404.11178193 -685 422 C-685.57572754 422.43376953 -686.15145508 422.86753906 -686.74462891 423.31445312 C-690.52513924 426.17328216 -694.26688883 429.07944412 -698 432 C-699.15083467 432.89219415 -700.30188232 433.78411363 -701.453125 434.67578125 C-707.86167714 439.65618219 -714.15269021 444.74634804 -720.32080078 450.02197266 C-723.625409 452.84803098 -726.97764122 455.59762393 -730.375 458.3125 C-736.36742328 463.18189227 -741.93806496 468.47408053 -747.55078125 473.76953125 C-750.10909599 476.17917879 -752.70501007 478.5262212 -755.375 480.8125 C-759.0416846 483.96330906 -762.39921743 487.38421529 -765.79296875 490.82421875 C-767.74131099 492.74497384 -769.72999209 494.54042805 -771.8125 496.3125 C-779.53845326 502.95681981 -786.69294541 510.31798694 -793.29296875 518.07421875 C-795.27599795 520.31136611 -797.37193386 522.40054652 -799.5 524.5 C-802.89268399 527.85256779 -806.09100684 531.29475682 -809.1953125 534.9140625 C-811.21651276 537.25025501 -813.29378839 539.52964851 -815.375 541.8125 C-819.27363397 546.13260791 -822.97503858 550.58071381 -826.6328125 555.10546875 C-828.683846 557.61341566 -830.77410567 560.08079765 -832.88671875 562.53686523 C-839.35155122 570.06797827 -845.36672476 577.90539195 -851.34716797 585.82373047 C-852.95924864 587.94634304 -854.5874463 590.05532714 -856.22265625 592.16015625 C-908.06549769 659.00661072 -948.88846146 735.31801438 -1030.86611938 1063.92556763 C-1030.95425174 1065.29114703 -1031.04656959 1066.65646379 -1031.1434021 1068.02145386 C-1032.23849283 1083.52370916 -1032.18743291 1099.05038183 -1032.18530273 1114.58276367 C-1032.1852221 1117.62937436 -1032.19207944 1120.67583267 -1032.20581055 1123.72241211 C-1032.32714129 1151.11485961 -1031.22578528 1178.31341406 -1028.25 1205.5625 C-1028.16763092 1206.3310733 -1028.08526184 1207.09964661 -1028.00039673 1207.89151001 C-1021.57097835 1267.39126848 -1008.61603419 1326.13677907 -990 1383 C-989.60971619 1384.19698517 -989.60971619 1384.19698517 -989.21154785 1385.41815186 C-974.14884172 1431.55603805 -955.78987091 1476.15577631 -935 1520 C-934.71020264 1520.61117676 -934.42040527 1521.22235352 -934.12182617 1521.85205078 C-927.15081834 1536.5408921 -920.07965802 1551.16452422 -912.35742188 1565.4765625 C-910.81548675 1568.3430088 -909.29057442 1571.21823277 -907.765625 1574.09375 C-900.40134872 1587.9339038 -892.71689407 1601.5450744 -884.74121094 1615.04101562 C-883.0038099 1617.99352552 -881.28415962 1620.95563874 -879.5703125 1623.921875 C-870.97903493 1638.78144048 -862.09703796 1653.44473927 -853 1668 C-852.40622559 1668.95261719 -851.81245117 1669.90523437 -851.20068359 1670.88671875 C-841.91103128 1685.74187506 -832.16625723 1700.28519563 -822.375 1714.8125 C-821.76806305 1715.71362518 -821.1611261 1716.61475037 -820.53579712 1717.54318237 C-808.62286203 1735.21561626 -796.4474156 1752.69980888 -784 1770 C-783.51740723 1770.6717627 -783.03481445 1771.34352539 -782.53759766 1772.03564453 C-771.34551557 1787.60861724 -760.08275488 1803.12786955 -748.32763672 1818.28222656 C-745.70388211 1821.67699254 -743.1040811 1825.09013631 -740.5 1828.5 C-728.78613534 1843.82389418 -717.03193316 1859.09676087 -704.83447266 1874.04052734 C-701.36140175 1878.30251232 -697.94225316 1882.60127171 -694.5625 1886.9375 C-685.92363341 1898.00128374 -676.92452676 1908.77646835 -667.83203125 1919.46899414 C-665.01714765 1922.78304071 -662.24517661 1926.12804856 -659.5 1929.5 C-654.87447007 1935.17903141 -650.14532956 1940.76592822 -645.40283203 1946.34716797 C-644.02522412 1947.97028067 -642.65068243 1949.5959304 -641.27734375 1951.22265625 C-635.56335612 1957.99033078 -629.81770439 1964.7299515 -624.046875 1971.44921875 C-621.9903355 1973.84388299 -619.93862686 1976.24256169 -617.890625 1978.64453125 C-612.6689843 1984.76392483 -607.40221173 1990.82733599 -602 1996.7890625 C-598.03016703 2001.17758879 -594.15026063 2005.64142711 -590.3203125 2010.15234375 C-584.72424835 2016.73475122 -579.04029055 2023.2011133 -573.15185547 2029.52392578 C-569.97923297 2032.9310146 -566.88450203 2036.38907222 -563.83984375 2039.91015625 C-561.43329879 2042.64370519 -558.96698556 2045.32115657 -556.5 2048 C-553.48073504 2051.27855105 -550.47797862 2054.56580957 -547.5625 2057.9375 C-543.98062691 2062.069109 -540.26162042 2066.06929927 -536.54541016 2070.07958984 C-532.74738544 2074.18098252 -528.99764732 2078.32276737 -525.265625 2082.484375 C-517.42836097 2091.18644058 -509.45491351 2099.76651024 -501.50732422 2108.36767578 C-500.02589866 2109.97195361 -498.54591008 2111.57754366 -497.06640625 2113.18359375 C-485.7184463 2125.49894556 -474.2721271 2137.72219844 -462.8125 2149.93359375 C-460.20422967 2152.71363808 -457.600625 2155.49795918 -455 2158.28515625 C-449.3082464 2164.38021285 -443.62037173 2170.45006198 -437.671875 2176.296875 C-435.94740305 2178.05358007 -434.34808886 2179.87795305 -432.75 2181.75 C-429.21941667 2185.86361544 -425.40553976 2189.65503712 -421.52636719 2193.43652344 C-418.76320543 2196.15175844 -416.15379826 2198.93907096 -413.625 2201.875 C-409.94763486 2206.12619575 -406.01111825 2210.06572309 -402 2214 C-398.05182087 2217.87254352 -394.16875641 2221.74127998 -390.5625 2225.9375 C-386.60725102 2230.5295351 -382.31942344 2234.75305011 -378 2239 C-369.43260418 2247.42364757 -369.43260418 2247.42364757 -365.65625 2251.84375 C-360.91524874 2257.36035284 -355.67420631 2262.39515746 -350.5 2267.5 C-339.30844417 2278.5415254 -339.30844417 2278.5415254 -335.6875 2282.8125 C-330.04208741 2289.42027585 -323.6728195 2295.39156054 -317.5 2301.5 C-314.92406781 2304.04906624 -312.35165686 2306.60161354 -309.78125 2309.15625 C-309.20499878 2309.72420288 -308.62874756 2310.29215576 -308.03503418 2310.87731934 C-305.10528555 2313.78970837 -302.30612842 2316.7604064 -299.609375 2319.890625 C-295.76508323 2324.3353626 -291.64548257 2328.46315432 -287.46875 2332.59375 C-286.27662903 2333.78019104 -286.27662903 2333.78019104 -285.0604248 2334.99060059 C-282.54271568 2337.49619523 -280.02178554 2339.99850858 -277.5 2342.5 C-274.17411811 2345.7991168 -270.85167664 2349.10164374 -267.53125 2352.40625 C-266.78000854 2353.14919312 -266.02876709 2353.89213623 -265.25476074 2354.65759277 C-261.90138978 2357.99552863 -258.6403413 2361.3572341 -255.5546875 2364.9453125 C-251.46725858 2369.68861561 -247.04120532 2374.06529716 -242.59375 2378.46875 C-241.71021851 2379.34849487 -240.82668701 2380.22823975 -239.91638184 2381.13464355 C-237.11334867 2383.92554506 -234.30720084 2386.71329232 -231.5 2389.5 C-227.7989945 2393.17398738 -224.10168178 2396.85165602 -220.40625 2400.53125 C-219.14814514 2401.77690735 -219.14814514 2401.77690735 -217.86462402 2403.04772949 C-213.55576629 2407.33874517 -209.41326455 2411.69299657 -205.48742676 2416.33874512 C-203.5364241 2418.5177517 -201.36107727 2420.28285289 -199 2422 C-197.80903249 2420.83687329 -196.62247296 2419.66923328 -195.4375 2418.5 C-194.77621094 2417.8503125 -194.11492188 2417.200625 -193.43359375 2416.53125 C-191.52437408 2414.54541638 -189.73650837 2412.53888765 -187.94946289 2410.44726562 C-183.64277403 2405.51304255 -179.0266585 2400.9193054 -174.375 2396.3125 C-173.01640869 2394.95958862 -173.01640869 2394.95958862 -171.63037109 2393.5793457 C-168.27078694 2390.23394556 -164.90668738 2386.89311608 -161.54223633 2383.5526123 C-158.23365649 2380.267082 -154.92897519 2376.97766209 -151.625 2373.6875 C-150.76438965 2372.83518799 -149.9037793 2371.98287598 -149.01708984 2371.10473633 C-144.75175274 2366.85662867 -140.67106632 2362.53699829 -136.74780273 2357.97265625 C-133.48546434 2354.29062045 -129.96521652 2350.86409396 -126.46875 2347.40625 C-125.27662903 2346.21980896 -125.27662903 2346.21980896 -124.0604248 2345.00939941 C-120.69464452 2341.65981427 -117.32288952 2338.3162673 -113.95166016 2334.97216797 C-111.47609773 2332.51479061 -109.00361917 2330.05433942 -106.53125 2327.59375 C-105.78000854 2326.85080688 -105.02876709 2326.10786377 -104.25476074 2325.34240723 C-100.2258571 2321.33204808 -96.40210021 2317.22317321 -92.69226074 2312.91711426 C-89.92989164 2309.78770455 -86.97102028 2306.86730057 -84 2303.9375 C-83.360625 2303.30191162 -82.72125 2302.66632324 -82.0625 2302.01147461 C-79.36581517 2299.33091985 -76.6631227 2296.65645336 -73.9609375 2293.98144531 C-64.57520966 2284.74042062 -64.57520966 2284.74042062 -55.75 2274.97265625 C-51.09996028 2269.73098201 -45.95683257 2264.91049137 -40.97021484 2259.99072266 C-35.71244583 2254.79709336 -30.55234509 2249.59398135 -25.74804688 2243.97070312 C-21.42821934 2239.10064057 -16.66484735 2234.63064755 -12.02734375 2230.06640625 C-7.7347854 2225.81518875 -3.62793015 2221.49949355 0.30664062 2216.91601562 C3.21656802 2213.62346802 6.36388851 2210.57510702 9.5 2207.5 C13.88915859 2203.15768181 18.15199156 2198.80929499 22.1328125 2194.0859375 C25.34349153 2190.49911197 28.8139398 2187.16709173 32.23608398 2183.78344727 C35.74453559 2180.29932822 39.06183709 2176.72860392 42.26171875 2172.95703125 C45.21481578 2169.63230853 48.42755509 2166.56553758 51.58984375 2163.44140625 C54.26854532 2160.72797273 56.74608118 2157.89222977 59.22265625 2154.99609375 C61.94733093 2151.93607449 64.88878072 2149.10293156 67.8046875 2146.2265625 C70.44006743 2143.55366826 72.87766489 2140.74631697 75.3203125 2137.8984375 C77.52165393 2135.41040974 79.88088515 2133.10805923 82.25 2130.78125 C84.08242487 2128.91610326 85.79353135 2126.98072254 87.5 2125 C90.25321001 2121.80430981 93.14627439 2118.82817609 96.15576172 2115.87548828 C97.93665279 2114.06442061 99.60193148 2112.19882336 101.2578125 2110.2734375 C104.86365173 2106.12605499 108.59857052 2102.11675007 112.375 2098.125 C117.23366655 2092.96671667 122.04315554 2087.77556018 126.76171875 2082.48828125 C129.48014996 2079.46622072 132.23824072 2076.48242419 135 2073.5 C140.04963981 2068.0438483 145.04016907 2062.53802616 150 2057 C151.49956619 2055.332943 152.99957053 2053.66628005 154.5 2052 C155.2425 2051.175 155.985 2050.35 156.75 2049.5 C159 2047 161.25 2044.5 163.5 2042 C164.60988281 2040.76636719 164.60988281 2040.76636719 165.7421875 2039.5078125 C167.26708244 2037.81407106 168.79315402 2036.12138831 170.3203125 2034.4296875 C175.87225646 2028.27549877 181.37295293 2022.08517369 186.75 2015.77734375 C191.49079323 2010.21877521 196.24086217 2004.69062026 201.1875 1999.3125 C204.39645044 1995.81740111 207.46065837 1992.2571616 210.4375 1988.5625 C213.65945075 1984.56773566 217.00677983 1980.75468333 220.5 1977 C224.71274442 1972.46743801 228.68029285 1967.79075263 232.5625 1962.97265625 C235.43720071 1959.46681131 238.39732001 1956.04338358 241.375 1952.625 C249.55617203 1943.22629247 257.61953776 1933.74099852 265.48828125 1924.078125 C268.6461018 1920.20819872 271.82296555 1916.35415572 275 1912.5 C280.3465273 1906.01071971 285.68584852 1899.51584403 291 1893 C291.48291504 1892.40896484 291.96583008 1891.81792969 292.46337891 1891.20898438 C300.0793009 1881.88527797 307.60277752 1872.49809257 315 1863 C315.53206055 1862.31711914 316.06412109 1861.63423828 316.61230469 1860.93066406 C319.53982073 1857.17202402 322.4644468 1853.41115597 325.38671875 1849.6484375 C327.78054427 1846.56668645 330.17914753 1843.48875547 332.58203125 1840.4140625 C343.7780256 1826.07857283 354.64945892 1811.51891516 365.421875 1796.86328125 C367.80097659 1793.62679305 370.18656817 1790.39526361 372.578125 1787.16796875 C379.08379389 1778.38236756 385.51110286 1769.55111317 391.78027344 1760.5949707 C393.8944044 1757.57619714 396.01255851 1754.5603197 398.13427734 1751.546875 C406.13787933 1740.16528725 414.01136096 1728.70170436 421.78710938 1717.16333008 C423.62817574 1714.43278997 425.47411423 1711.70558771 427.3203125 1708.97851562 C434.62004056 1698.17128122 441.71632574 1687.25806873 448.62330627 1676.19590759 C450.62309147 1673.0061324 452.64574027 1669.83103706 454.66772461 1666.65530396 C461.31032238 1656.22078344 467.69914853 1645.64361964 474 1635 C474.64098633 1633.91928223 475.28197266 1632.83856445 475.94238281 1631.72509766 C490.25590221 1607.57418874 503.99418927 1583.16822123 516.8125 1558.18359375 C518.67585257 1554.55302267 520.55691294 1550.9361761 522.5 1547.34765625 C561.85436958 1474.60645259 590.81761485 1394.62354734 630.75 1189.8125 C630.83888489 1188.81009781 630.83888489 1188.81009781 630.92956543 1187.78744507 C631.32980634 1183.19460209 631.67830311 1178.59889832 632 1174 C632.04805786 1173.34132935 632.09611572 1172.68265869 632.14562988 1172.00402832 C633.33239203 1155.23787801 633.24411855 1138.42413616 633.25 1121.625 C633.25058914 1120.85321663 633.25117828 1120.08143326 633.25178528 1119.28626251 C633.26604682 1092.75282725 632.51355065 1066.42965175 630 1040 C629.92738953 1039.21584717 629.85477905 1038.43169434 629.77996826 1037.6237793 C623.74397523 972.48035411 610.31332626 908.18414228 590 846 C589.78126221 845.32636414 589.56252441 844.65272827 589.3371582 843.9586792 C576.26177578 803.71714449 559.57863035 764.99261912 541 727 C540.36263916 725.68443115 540.36263916 725.68443115 539.71240234 724.34228516 C533.03548384 710.56766732 525.68514546 697.23610667 518 684 C517.37818848 682.9279834 516.75637695 681.8559668 516.11572266 680.75146484 C503.4397457 658.96971437 490.28729716 637.47825886 475.49169922 617.06103516 C473.89342414 614.8527474 472.30745589 612.63594443 470.72265625 610.41796875 C461.23598526 597.16874534 451.33625043 584.32615296 441.0234375 571.7109375 C438.65268453 568.80913587 436.31811843 565.88160821 434 562.9375 C425.90998393 552.8036904 417.22462717 543.15573862 408.421875 533.640625 C406.36363374 531.39647808 404.35791656 529.12287068 402.375 526.8125 C399.15368142 523.09025868 395.67857911 519.66273267 392.17578125 516.20703125 C390.25502616 514.25868901 388.45957195 512.27000791 386.6875 510.1875 C380.04318019 502.46154674 372.68201306 495.30705459 364.92578125 488.70703125 C362.68863389 486.72400205 360.59945348 484.62806614 358.5 482.5 C355.16879193 479.12899935 351.74888372 475.9548597 348.15234375 472.87109375 C345.61947838 470.66920171 343.15667478 468.39804174 340.6875 466.125 C336.20337072 462.03562213 331.59732762 458.15380979 326.875 454.34375 C324.30655787 452.24991131 321.77986704 450.11843021 319.26293945 447.96362305 C312.97338578 442.58342502 306.53548024 437.43604664 299.92578125 432.453125 C297.75881022 430.8180069 295.59846438 429.1742973 293.4375 427.53125 C222.18984879 373.53690059 142.8770084 331.38389879 -150 262 C-150.69516724 261.95869965 -151.39033447 261.91739929 -152.10656738 261.87484741 C-167.61243932 260.96630342 -183.09514797 260.79859982 -198.625 260.8125 C-200.50551056 260.81340637 -200.50551056 260.81340637 -202.42401123 260.81433105 C-222.68577715 260.84074502 -242.81151516 261.26146686 -263 263 Z " fill="#FA051E" transform="translate(1866,295)"/>
<path d="M0 0 C0.6863855 0.0825 1.372771 0.165 2.07995605 0.25 C86.19242199 10.38814273 166.88541632 40.01872394 273 111 C273.60150879 111.46116211 274.20301758 111.92232422 274.82275391 112.39746094 C287.06573126 121.80589022 298.761228 131.80347968 310.08203125 142.30078125 C312.00618795 144.08069059 313.9409187 145.84924597 315.88671875 147.60546875 C326.16113767 156.89222657 336.39459439 166.46613734 345.33984375 177.05859375 C347.45702462 179.53444997 349.66781829 181.91661268 351.875 184.3125 C356.79577302 189.7149752 361.4270049 195.30237581 366 201 C366.92389449 202.13198786 367.8484029 203.26347487 368.7734375 204.39453125 C429.79317962 279.361643 468.90288572 370.91433575 488.15550232 609.71842957 C480.19716512 685.96158004 457.01883689 760.35235833 419 827 C418.58717773 827.73154297 418.17435547 828.46308594 417.74902344 829.21679688 C401.77909379 857.44818519 382.87407582 884.18540987 362 909 C361.55333984 909.53157715 361.10667969 910.0631543 360.64648438 910.61083984 C359.16487986 912.36961868 357.67732988 914.12318476 356.1875 915.875 C355.53189087 916.64976685 355.53189087 916.64976685 354.86303711 917.44018555 C345.58706048 928.27225926 335.66828646 938.49746495 325.57128906 948.55908203 C323.7338424 950.39110995 321.9018835 952.22850605 320.0703125 954.06640625 C314.21653409 959.92383791 308.34252232 965.6668448 302 971 C300.88147405 971.97242092 299.7642593 972.94635235 298.6484375 973.921875 C229.19928693 1034.08525759 144.26990204 1076.87382842 -105.69950867 1107.83970642 C-131.43033888 1105.92972635 -156.74715461 1102.25961802 -182 1097 C-183.1334082 1096.76555176 -184.26681641 1096.53110352 -185.43457031 1096.28955078 C-268.95885775 1078.73483181 -349.57495473 1039.95761844 -415.24707031 985.44873047 C-417.75011324 983.38005961 -420.28420376 981.35017785 -422.8125 979.3125 C-427.41773356 975.54395302 -431.82873534 971.59211696 -436.19921875 967.5546875 C-437.64275974 966.23798484 -439.08994992 964.92398461 -440.58227539 963.6628418 C-447.43097115 957.85342429 -453.70083289 951.44953628 -460.03637695 945.09399414 C-462.05764268 943.0673702 -464.08419574 941.04614453 -466.11132812 939.02539062 C-472.28552948 932.85465899 -478.39001592 926.69610713 -484 920 C-484.94836817 918.91608151 -485.89885543 917.83401306 -486.8515625 916.75390625 C-494.06579554 908.48223749 -500.80373268 899.90997457 -507.39306641 891.13476562 C-508.96516569 889.04627639 -510.54924023 886.96743916 -512.13671875 884.890625 C-518.79269717 876.15253628 -525.04417352 867.22806185 -531 858 C-531.45842285 857.29568848 -531.9168457 856.59137695 -532.38916016 855.86572266 C-540.82022415 842.88673447 -548.53871288 829.55669692 -556 816 C-556.66080566 814.81035645 -556.66080566 814.81035645 -557.33496094 813.59667969 C-591.51365066 751.82957062 -611.85782762 681.09258172 -619 611 C-619.08613556 610.19318787 -619.17227112 609.38637573 -619.26101685 608.55511475 C-621.09774749 590.99755193 -621.36258628 573.49187449 -621.31805801 555.85956192 C-621.31242104 553.59325337 -621.30959843 551.32695228 -621.30697632 549.06063843 C-621.27082047 527.57070928 -620.90618064 506.33296774 -618 485 C-617.83371094 483.69514648 -617.66742187 482.39029297 -617.49609375 481.04589844 C-606.172749 392.60265149 -573.17146536 307.9404792 -483.9296875 186.109375 C-482.14829604 184.16210498 -480.4124023 182.18475529 -478.6875 180.1875 C-467.24326631 167.0934111 -455.31423915 153.95926032 -442.0078125 142.7265625 C-439.87023831 140.88841505 -437.80307526 138.98187236 -435.73754883 137.06347656 C-429.68867544 131.4500001 -423.46089033 126.13894664 -417 121 C-416.49307617 120.59346191 -415.98615234 120.18692383 -415.46386719 119.76806641 C-388.04206165 97.78869261 -358.86410422 78.76019556 -328 62 C-327.1656543 61.54254395 -326.33130859 61.08508789 -325.47167969 60.61376953 C-265.53756272 27.88259542 -198.6632331 8.13277196 -131 0 C-130.33166138 -0.0825 -129.66332275 -0.165 -128.97473145 -0.25 C-86.56671589 -5.45514821 -42.39410976 -5.23314669 0 0 Z M-260 355 C-260.48839355 355.46647949 -260.97678711 355.93295898 -261.47998047 356.41357422 C-267.27771202 361.9776048 -272.64669986 367.73181046 -277.640625 374.02734375 C-279.31226786 376.13350304 -281.00097278 378.2004635 -282.734375 380.25390625 C-317.14246048 421.41659911 -336.62790755 473.95765563 -342 527 C-342.11214844 528.08539062 -342.22429687 529.17078125 -342.33984375 530.2890625 C-348.34127089 599.18215761 -326.83771704 672.2571279 -282.46264648 725.60424805 C-280.34031291 728.0988689 -278.1766836 730.55256689 -276 733 C-274.79143568 734.39563334 -273.58307387 735.7914421 -272.375 737.1875 C-271.25091261 738.45914063 -270.12586011 739.72992859 -269 741 C-268.29230469 741.81210938 -267.58460938 742.62421875 -266.85546875 743.4609375 C-262.8382366 748.01881929 -258.78249821 752.26457504 -254.1328125 756.17578125 C-251.68139797 758.27250393 -249.3517558 760.47965762 -247 762.6875 C-198.56545105 806.71890813 -131.41207363 830.19424811 -66.4375 830.25 C-65.72134521 830.25067474 -65.00519043 830.25134949 -64.26733398 830.25204468 C4.61242938 830.15012336 71.93177497 804.06158941 122.09375 756.71875 C124.47379805 754.49225344 126.88813685 752.35426882 129.375 750.25 C132.61155509 747.44588651 135.39890102 744.4140807 138.1640625 741.1484375 C140.15805217 738.81504533 142.23161341 736.56861914 144.3125 734.3125 C158.45769254 718.56641574 170.10401489 700.67008245 180 682 C180.3398291 681.36416992 180.6796582 680.72833984 181.02978516 680.07324219 C197.57186125 648.88775009 207.71264001 614.12888176 211 579 C211.16628906 577.26943359 211.16628906 577.26943359 211.3359375 575.50390625 C216.9493273 506.24681323 196.10774437 436.48078464 153 382 C152.23171875 381.01902344 151.4634375 380.03804687 150.671875 379.02734375 C138.64255553 363.99069441 125.1306293 349.90705981 110 338 C108.90671354 337.11692256 107.8142997 336.23276394 106.72265625 335.34765625 C59.13653435 297.00385882 -1.38259636 275.21358989 -62.55224609 275.60888672 C-65.50014459 275.62500079 -68.44667296 275.6088937 -71.39453125 275.58984375 C-142.35028689 275.51196808 -209.31962809 306.29997476 -260 355 Z " fill="#FA051E" transform="translate(1732,836)"/>
</svg>
