<?xml version="1.0" encoding="UTF-8"?>
<svg version="1.1" xmlns="http://www.w3.org/2000/svg" width="192" height="192">
<path d="M0 0 C0.91523437 0.40089844 1.83046875 0.80179687 2.7734375 1.21484375 C15.29406272 7.26472568 25.22256329 18.46819884 30.25 31.375 C35.09054095 45.79577826 35.47746523 60.37630298 29.51171875 74.53125 C25.02157354 83.22309425 19.63828322 91.38415365 14.35083008 99.60595703 C4.38148912 115.12681608 -4.34458827 131.20016567 -12.73242188 147.62255859 C-16.55949079 154.80052413 -16.55949079 154.80052413 -20.3125 156.5 C-24.78490398 157.10642766 -26.23324314 156.38748145 -30 154 C-31.76000977 151.45410156 -31.76000977 151.45410156 -33.19140625 148.390625 C-33.73716309 147.25431641 -34.28291992 146.11800781 -34.84521484 144.94726562 C-35.12500183 144.34438721 -35.40478882 143.74150879 -35.6930542 143.12036133 C-37.17579686 139.93066908 -38.72198937 136.77184613 -40.26171875 133.609375 C-40.5722821 132.96798584 -40.88284546 132.32659668 -41.20281982 131.66577148 C-48.52954817 116.61524602 -56.97481611 101.96943375 -66.86328125 88.453125 C-76.73634587 74.8380209 -81.73460983 59.81521771 -79.375 42.875 C-76.38412247 27.98003375 -68.10068896 14.16502074 -55.62109375 5.3125 C-39.26848784 -4.92387303 -17.93926216 -8.64444808 0 0 Z M-55.4609375 28.84765625 C-60.46758162 35.84933369 -62.19198155 43.08603578 -62.3125 51.5625 C-62.34150391 52.21541016 -62.37050781 52.86832031 -62.40039062 53.54101562 C-62.53299743 64.11895873 -57.36275077 72.62601158 -51.4375 81 C-41.11937431 96.0350985 -32.3877357 111.8251319 -24 128 C-23.34 128 -22.68 128 -22 128 C-21.56469971 127.17314697 -21.56469971 127.17314697 -21.12060547 126.32958984 C-13.86971997 112.62719579 -6.00859237 99.49425491 2.40625 86.47998047 C4.71355626 82.88965923 6.96966149 79.27116582 9.1875 75.625 C10.19876953 73.97371094 10.19876953 73.97371094 11.23046875 72.2890625 C16.83547378 61.87092954 17.87483305 51.07899072 15.19140625 39.515625 C11.3018228 29.12545746 4.05252607 21.65668176 -5.4453125 16.15625 C-23.93172994 7.78930877 -42.87216747 13.87334304 -55.4609375 28.84765625 Z " fill="#FA051E" transform="translate(119,4)"/>
<path d="M0 0 C3.12785483 2.03310564 3.80934494 3.40261415 4.9375 6.9375 C5.01379687 10.67604664 4.20270787 12.02155588 2 15 C-0.13671875 16.15234375 -0.13671875 16.15234375 -2.6875 16.9375 C-3.656875 17.25847656 -4.62625 17.57945312 -5.625 17.91015625 C-6.73875 18.26980469 -7.8525 18.62945312 -9 19 C-22.59149091 23.53263889 -22.59149091 23.53263889 -34 32 C-34.14636054 35.36629251 -34.07193479 37.78419562 -33 41 C-31.29364318 42.07713813 -31.29364318 42.07713813 -29 43 C-27.95972656 43.51175781 -26.91945313 44.02351563 -25.84765625 44.55078125 C-18.24352316 48.14581467 -10.68714671 50.85665233 -2.5 52.8125 C-1.69570557 53.00690674 -0.89141113 53.20131348 -0.06274414 53.40161133 C14.46532462 56.66981626 28.86110477 57.37639858 43.6875 57.3125 C44.56707367 57.31067719 45.44664734 57.30885437 46.35287476 57.30697632 C59.43637773 57.26135606 72.18108125 56.84525589 85 54 C85.81114258 53.82839355 86.62228516 53.65678711 87.45800781 53.47998047 C99.22006974 50.92826521 113.90281956 47.6023034 122 38 C122.83349951 35.04340127 122.83349951 35.04340127 122 32 C114.79006354 24.22085803 104.13431244 21.16764562 94.24511719 18.23071289 C89.88459579 16.87872601 86.88937037 15.74355442 84 12 C83.0625 9.5625 83.0625 9.5625 83 7 C84.38557787 4.16286436 85.77001704 2.22998296 88 0 C94.27257405 -0.97404327 100.00752333 0.53777806 105.875 2.625 C107.050625 3.03431763 107.050625 3.03431763 108.25 3.4519043 C119.74798908 7.57510026 133.79683117 14.22940178 139.4375 25.86328125 C141.0518878 31.9957127 141.3164909 38.7279916 138.9296875 44.66015625 C137.45685866 47.00621968 135.88288092 48.97040109 134 51 C133.46632812 51.60070312 132.93265625 52.20140625 132.3828125 52.8203125 C123.70273394 61.4232348 111.31091155 65.91826672 99.8125 69.3125 C99.04977783 69.54267822 98.28705566 69.77285645 97.5012207 70.01000977 C80.99778708 74.55182665 64.03317853 75.49701184 47.0065918 75.39111328 C43.93558502 75.37498995 40.86589004 75.39109557 37.79492188 75.41015625 C11.35957241 75.43869815 -23.85899502 72.36800266 -44 53 C-49.43301115 47.40199502 -52.28831984 43.32988605 -52.5 35.3125 C-52.38165832 28.18241351 -50.80993072 24.18473052 -46 19 C-45.46632813 18.39929688 -44.93265625 17.79859375 -44.3828125 17.1796875 C-34.07177329 6.96030197 -14.43624429 -1.83317388 0 0 Z " fill="#FA051E" transform="translate(52,117)"/>
<path d="M0 0 C5.32134088 4.71349233 8.88255127 9.90714121 10 17 C10.27436535 24.67030076 8.39191213 31.17834334 3.2734375 36.9453125 C-1.92946313 41.89946888 -7.24830161 44.83003256 -14.51171875 45.08984375 C-22.42876811 44.61700313 -28.29811754 42.08550066 -33.8125 36.375 C-38.35489199 30.77237006 -40.42212476 24.59466625 -39.9375 17.375 C-38.64831198 9.74730419 -35.26895874 4.34456859 -29.26953125 -0.51953125 C-19.99417979 -6.57006172 -9.02973011 -6.3631092 0 0 Z M-21 14 C-22.63102777 17.26205554 -22.51981506 20.43555389 -22 24 C-21.16666667 26.16666667 -21.16666667 26.16666667 -19 27 C-15.43555389 27.51981506 -12.26205554 27.63102777 -9 26 C-7.36897223 22.73794446 -7.48018494 19.56444611 -8 16 C-8.83333333 13.83333333 -8.83333333 13.83333333 -11 13 C-14.56444611 12.48018494 -17.73794446 12.36897223 -21 14 Z " fill="#FA051E" transform="translate(111,36)"/>
</svg>
